<svg width="388" height="388" fill="none" xmlns="http://www.w3.org/2000/svg"><g clip-path="url(#clip0_0_3)"><path d="M239.881 287.363h-92.859c2.164 0 3.91 21.285 3.91 47.505 0 26.239-1.74 47.524-3.91 47.524h92.859c-2.158 0-3.91-21.285-3.91-47.524.012-26.22 1.752-47.505 3.91-47.505z" fill="#BFBEBE"/><path d="M179.541 287.363h-32.513c2.164 0 3.91 21.285 3.91 47.505 0 26.239-1.74 47.524-3.91 47.524h32.513c2.164 0 3.91-21.285 3.91-47.524 0-26.22-1.746-47.505-3.91-47.505z" fill="#AEAEAE"/><path d="M386.691 286.817c0 24.535-18.491 44.414-41.262 44.414H41.516c-22.795 0-41.28-19.879-41.28-44.414V61.777c0-24.493 18.485-44.384 41.28-44.384h303.913c22.771 0 41.262 19.873 41.262 44.384v225.04" fill="#D1D2D2"/><path d="M78.388 286.817V61.777c0-24.493 18.485-44.384 41.274-44.384h-78.17c-22.795 0-41.28 19.873-41.28 44.384v225.04c0 24.535 18.485 44.414 41.28 44.414h78.17c-22.79 0-41.274-19.885-41.274-44.42" fill="#C6C5C5"/><path d="M386.691 223.955c0 24.492-18.491 44.377-41.262 44.377H41.516c-22.795 0-41.28-19.866-41.28-44.377V61.613c0-24.535 18.485-44.408 41.28-44.408h303.913c22.771 0 41.262 19.873 41.262 44.408v162.342z" fill="#243438"/><path d="M.218 212.491h386.479v68.912H.218v-68.912z" fill="#243438"/><path d="M356.172 37.854H30.731c-2.686 0-4.923 1.486-4.923 3.274v211.527c0 1.794 2.237 3.273 4.923 3.273h325.441c1.461 0 2.57-.309 3.377-.854l.121-.122s.097-.072.121-.139a2.503 2.503 0 001.352-2.158V41.17c-.024-1.788-2.285-3.273-4.971-3.273" fill="#58C5E8"/><path d="M198.232 179.201c54.417 32.605 107.579 54.805 162.887 68.234V41.128c0-1.788-2.261-3.274-4.947-3.274H57.533C88.21 95.66 141.002 144.918 198.244 179.201h-.012zm.436 34.623c-65.657-35.762-131.392-85.299-172.86-146.47V252.65c0 1.794 2.237 3.273 4.923 3.273h265.616c-32.446-10.457-64.802-24.165-97.667-42.073" fill="#28A6DE"/><path d="M265.059 380.282c0 4.256-2.05 7.718-4.566 7.718H126.452c-2.541 0-4.59-3.462-4.59-7.718 0-4.261 2.049-7.717 4.59-7.717h134.041c2.516-.018 4.566 3.449 4.566 7.717z" fill="#D1D2D2"/><path d="M169.368 380.282c0-4.261 2.049-7.717 4.565-7.717h-49.258c-2.522 0-4.565 3.456-4.565 7.717 0 4.256 2.049 7.718 4.565 7.718h49.258c-2.516 0-4.565-3.462-4.565-7.718z" fill="#C6C5C5"/><path d="M208.126 294.728c-.594-.569-1.461-.733-2.644-.394l-6.808 1.74c-2.122.576-3.195 1.977-3.195 4.232l-.024 7.281c0 1.055.236 1.837.709 2.286a2.031 2.031 0 001.51.563c.364 0 .703-.078 1.14-.163l6.802-1.734c2.122-.57 3.201-1.977 3.225-4.262v-7.257c-.018-1.073-.255-1.843-.715-2.292zm-3.614 8.288c0 .806-.376 1.303-1.145 1.515l-2.413.631a2.57 2.57 0 01-.4.048.833.833 0 01-.546-.187c-.158-.152-.261-.437-.23-.849v-2.589c0-.806.375-1.303 1.133-1.509l2.443-.631c.419-.097.734-.048.916.139.182.164.261.437.261.825v2.613h-.019v-.006zm-13.058-2.74c0-2.256-1.061-3.662-3.201-4.232l-6.802-1.74c-1.176-.339-2.049-.158-2.613.394-.497.449-.734 1.219-.734 2.286l.024 7.244c.025 2.286 1.086 3.698 3.201 4.262l6.827 1.74c.4.121.776.164 1.103.164a2.003 2.003 0 001.51-.57c.473-.443.709-1.219.709-2.286l-.024-7.262zm-4.523 4.716c-.121.128-.303.188-.539.188 0 0-.261-.024-.401-.048l-2.425-.631c-.751-.212-1.151-.709-1.151-1.515v-2.613c0-.376.097-.655.254-.825.188-.188.497-.236.94-.139l2.425.63c.752.206 1.152.703 1.152 1.51v2.613c0 .376 0 .66-.255.83zm9.306 13.95c.121 0 .237-.024.4-.079l2.425-.624c.752-.176 1.152-.697 1.152-1.528v-2.583a1.433 1.433 0 00-.236-.836c-.213-.206-.546-.231-.94-.128l-2.449.625c-.752.188-1.134.703-1.134 1.528l-.024 2.6c0 .376.097.631.26.795.122.157.31.23.546.23zm-5.535 0a1.254 1.254 0 01-.424-.079l-2.425-.624c-.752-.176-1.134-.697-1.134-1.528l-.024-2.583c0-.382.097-.636.26-.836.188-.206.516-.231.916-.128l2.473.625c.734.188 1.134.703 1.134 1.528v2.6c0 .376-.097.631-.236.795a.701.701 0 01-.54.23" fill="#243438"/></g><defs><clipPath id="clip0_0_3"><path fill="#fff" d="M0 0h388v388H0z"/></clipPath></defs></svg>