<svg width="388" height="388" viewBox="0 0 388 388" fill="none" xmlns="http://www.w3.org/2000/svg">
<g clip-path="url(#clip0_0_3)">
<path d="M239.881 287.363H147.022C149.186 287.363 150.932 308.648 150.932 334.868C150.932 361.107 149.192 382.392 147.022 382.392H239.881C237.723 382.392 235.971 361.107 235.971 334.868C235.983 308.648 237.723 287.363 239.881 287.363Z" fill="#BFBEBE"/>
<path d="M179.541 287.363H147.028C149.192 287.363 150.938 308.648 150.938 334.868C150.938 361.107 149.198 382.392 147.028 382.392H179.541C181.705 382.392 183.451 361.107 183.451 334.868C183.451 308.648 181.705 287.363 179.541 287.363Z" fill="#AEAEAE"/>
<path d="M386.691 286.817C386.691 311.352 368.2 331.231 345.429 331.231H41.516C18.721 331.231 0.23645 311.352 0.23645 286.817V61.7769C0.23645 37.2844 18.721 17.3933 41.516 17.3933H345.429C368.2 17.3933 386.691 37.2662 386.691 61.7769V286.817" fill="#D1D2D2"/>
<path d="M78.3881 286.817V61.7769C78.3881 37.2844 96.8727 17.3933 119.662 17.3933H41.4918C18.6968 17.3933 0.212189 37.2662 0.212189 61.7769V286.817C0.212189 311.352 18.6968 331.231 41.4918 331.231H119.662C96.8727 331.231 78.3881 311.346 78.3881 286.811" fill="#C6C5C5"/>
<path d="M386.691 223.955C386.691 248.447 368.2 268.332 345.429 268.332H41.516C18.721 268.332 0.23645 248.466 0.23645 223.955V61.6132C0.23645 37.0783 18.721 17.2054 41.516 17.2054H345.429C368.2 17.2054 386.691 37.0783 386.691 61.6132V223.955Z" fill="#243438"/>
<path d="M0.218262 212.491H386.697V281.403H0.218262V212.491Z" fill="#243438"/>
<path d="M356.172 37.8542H30.7308C28.0451 37.8542 25.8081 39.3396 25.8081 41.128V252.655C25.8081 254.449 28.0451 255.928 30.7308 255.928H356.172C357.633 255.928 358.742 255.619 359.549 255.074L359.67 254.952C359.67 254.952 359.767 254.88 359.791 254.813C360.189 254.606 360.524 254.298 360.761 253.918C360.999 253.539 361.131 253.102 361.143 252.655V41.1704C361.119 39.382 358.858 37.8967 356.172 37.8967" fill="#58C5E8"/>
<path d="M198.232 179.201C252.649 211.806 305.811 234.006 361.119 247.435V41.128C361.119 39.3396 358.858 37.8542 356.172 37.8542H57.5331C88.2094 95.6602 141.002 144.918 198.244 179.201H198.232ZM198.668 213.824C133.011 178.062 67.2756 128.525 25.8081 67.3544V252.649C25.8081 254.443 28.0451 255.922 30.7308 255.922H296.347C263.901 245.465 231.545 231.757 198.68 213.849" fill="#28A6DE"/>
<path d="M265.059 380.282C265.059 384.538 263.009 388 260.493 388H126.452C123.911 388 121.862 384.538 121.862 380.282C121.862 376.021 123.911 372.565 126.452 372.565H260.493C263.009 372.547 265.059 376.014 265.059 380.282Z" fill="#D1D2D2"/>
<path d="M169.368 380.282C169.368 376.021 171.417 372.565 173.933 372.565H124.675C122.153 372.565 120.11 376.021 120.11 380.282C120.11 384.538 122.159 388 124.675 388H173.933C171.417 388 169.368 384.538 169.368 380.282Z" fill="#C6C5C5"/>
<path d="M208.126 294.728C207.532 294.159 206.665 293.995 205.482 294.334L198.674 296.074C196.552 296.65 195.479 298.051 195.479 300.306L195.455 307.587C195.455 308.642 195.691 309.424 196.164 309.873C196.364 310.065 196.601 310.214 196.861 310.311C197.12 310.408 197.397 310.45 197.674 310.436C198.038 310.436 198.377 310.358 198.814 310.273L205.616 308.539C207.738 307.969 208.817 306.562 208.841 304.277V297.02C208.823 295.947 208.586 295.177 208.126 294.728V294.728ZM204.512 303.016C204.512 303.822 204.136 304.319 203.367 304.531L200.954 305.162C200.822 305.188 200.688 305.205 200.554 305.21C200.355 305.215 200.162 305.148 200.008 305.023C199.85 304.871 199.747 304.586 199.778 304.174V301.585C199.778 300.779 200.153 300.282 200.911 300.076L203.354 299.445C203.773 299.348 204.088 299.397 204.27 299.584C204.452 299.748 204.531 300.021 204.531 300.409V303.022H204.512V303.016ZM191.454 300.276C191.454 298.02 190.393 296.614 188.253 296.044L181.451 294.304C180.275 293.965 179.402 294.146 178.838 294.698C178.341 295.147 178.104 295.917 178.104 296.984L178.128 304.228C178.153 306.514 179.214 307.926 181.329 308.49L188.156 310.23C188.556 310.351 188.932 310.394 189.259 310.394C189.537 310.409 189.814 310.366 190.074 310.268C190.334 310.17 190.57 310.019 190.769 309.824C191.242 309.381 191.478 308.605 191.478 307.538L191.454 300.276ZM186.931 304.992C186.81 305.12 186.628 305.18 186.392 305.18C186.392 305.18 186.131 305.156 185.991 305.132L183.566 304.501C182.815 304.289 182.415 303.792 182.415 302.986V300.373C182.415 299.997 182.512 299.718 182.669 299.548C182.857 299.36 183.166 299.312 183.609 299.409L186.034 300.039C186.786 300.245 187.186 300.742 187.186 301.549V304.162C187.186 304.538 187.186 304.822 186.931 304.992V304.992ZM196.237 318.942C196.358 318.942 196.474 318.918 196.637 318.863L199.062 318.239C199.814 318.063 200.214 317.542 200.214 316.711V314.128C200.224 313.832 200.141 313.539 199.978 313.292C199.765 313.086 199.432 313.061 199.038 313.164L196.589 313.789C195.837 313.977 195.455 314.492 195.455 315.317L195.431 317.917C195.431 318.293 195.528 318.548 195.691 318.712C195.813 318.869 196.001 318.942 196.237 318.942ZM190.702 318.942C190.557 318.94 190.414 318.914 190.278 318.863L187.853 318.239C187.101 318.063 186.719 317.542 186.719 316.711L186.695 314.128C186.695 313.746 186.792 313.492 186.955 313.292C187.143 313.086 187.471 313.061 187.871 313.164L190.344 313.789C191.078 313.977 191.478 314.492 191.478 315.317V317.917C191.478 318.293 191.381 318.548 191.242 318.712C191.174 318.787 191.091 318.847 190.997 318.887C190.904 318.927 190.803 318.946 190.702 318.942" fill="#243438"/>
</g>
<defs>
<clipPath id="clip0_0_3">
<rect width="388" height="388" fill="white"/>
</clipPath>
</defs>
</svg>
